<?xml version="1.0" encoding="UTF-8"?>
<svg version="1.1" xmlns="http://www.w3.org/2000/svg" width="512" height="512">
<path d="M0 0 C5.20408682 3.01263279 10.46266021 5.92701372 15.71630859 8.85205078 C24.21890746 13.60279215 32.69014224 18.40460918 41.13867188 23.25073242 C47.93164165 27.14134506 54.75692209 30.97223489 61.59130859 34.78955078 C70.17562148 39.58489393 78.73570832 44.41892368 87.26342773 49.31420898 C91.83497663 51.93655658 96.41704173 54.53777731 101.01708984 57.10986328 C129.0007012 72.76209791 153.59432962 88.96745845 164.46630859 120.85205078 C164.70502686 121.54693604 164.94374512 122.24182129 165.18969727 122.95776367 C169.01118101 134.94188142 169.38796873 147.14448368 169.3659668 159.60107422 C169.37032466 161.25026681 169.37551135 162.89945738 169.38145447 164.54864502 C169.39474182 168.99104691 169.39543457 173.4333632 169.39289117 177.87578106 C169.3918142 181.60283015 169.39672335 185.32986244 169.40149659 189.05690789 C169.41255682 197.86070554 169.41304921 206.6644605 169.40698242 215.46826172 C169.40094854 224.50743201 169.41324683 233.54644641 169.43455249 242.58559012 C169.45224994 250.38478951 169.45815699 258.18393965 169.45491475 265.98315835 C169.4531143 270.62420922 169.4556126 275.26514892 169.46962929 279.90618134 C169.48233609 284.27629829 169.48014408 288.64617489 169.4672184 293.01628876 C169.46488054 294.6055917 169.46748492 296.19491225 169.47584152 297.78419495 C169.61094225 325.51200664 161.92280982 350.84226634 142.09521484 370.87158203 C141.09776707 371.84819044 140.09669394 372.82111578 139.09130859 373.78955078 C138.27533203 374.57716797 137.45935547 375.36478516 136.61865234 376.17626953 C128.63656009 383.22226856 119.23674181 388.07616063 109.96337891 393.19824219 C106.1549381 395.30835925 102.36791398 397.45534791 98.58056641 399.60302734 C95.69288914 401.24032952 92.80265707 402.87303116 89.91162109 404.50439453 C83.17448516 408.30659646 76.44007296 412.11361005 69.70581055 415.92089844 C64.97735176 418.59394066 60.24814776 421.26564238 55.51708984 423.93408203 C45.66050528 429.49572915 35.8194882 435.08335111 25.99822998 440.70715332 C21.27918498 443.4081378 16.55673419 446.10315617 11.83319092 448.79626465 C10.10660566 449.78082782 8.38044929 450.76614301 6.65429688 451.75146484 C-23.66612914 469.02598417 -52.47138584 482.23777323 -87.90869141 472.78955078 C-106.37667299 466.930076 -123.25571128 456.13136429 -139.9375 446.50244141 C-145.50378054 443.29348296 -151.08106652 440.10373493 -156.65869141 436.91455078 C-157.2509552 436.57577911 -157.84321899 436.23700745 -158.45343018 435.88796997 C-168.90426404 429.91203477 -179.39890361 424.01668893 -189.90869141 418.14501953 C-198.55421666 413.31394236 -207.1763297 408.44210175 -215.78955078 403.55371094 C-218.60031528 401.96396577 -221.4158985 400.38327495 -224.23332214 398.8053894 C-254.5253964 381.82685456 -279.40177252 364.2623495 -290.08447266 329.41064453 C-292.62421316 318.25263767 -293.20345696 307.36198514 -293.18334961 295.97802734 C-293.18770748 294.32883475 -293.19289416 292.67964418 -293.19883728 291.03045654 C-293.21212463 286.58805465 -293.21281738 282.14573837 -293.21027398 277.7033205 C-293.20919702 273.97627141 -293.21410616 270.24923913 -293.2188794 266.52219367 C-293.22993963 257.71839603 -293.23043203 248.91464106 -293.22436523 240.11083984 C-293.21833135 231.07166955 -293.23062965 222.03265515 -293.2519353 212.99351144 C-293.26963275 205.19431205 -293.27553981 197.39516191 -293.27229756 189.59594321 C-293.27049711 184.95489235 -293.27299541 180.31395264 -293.2870121 175.67292023 C-293.2997189 171.30280328 -293.29752689 166.93292667 -293.28460121 162.56281281 C-293.28226335 160.97350986 -293.28486774 159.38418931 -293.29322433 157.79490662 C-293.42821534 130.0896137 -285.71869604 105.25242607 -266.29150391 84.98486328 C-257.96691035 76.87975301 -248.92605254 70.70643954 -238.78369141 65.10205078 C-237.55234899 64.41113224 -236.32156528 63.71921715 -235.09130859 63.02636719 C-231.96853892 61.27091192 -228.83916856 59.52765268 -225.70715332 57.78875732 C-221.88059424 55.6627613 -218.06119746 53.52391779 -214.24047852 51.38745117 C-212.18474261 50.2381738 -210.12826301 49.09022566 -208.07104492 47.94360352 C-200.90167847 43.93821492 -193.80088726 39.82605145 -186.72119141 35.66455078 C-178.22507544 30.67245137 -169.64867446 25.86739737 -160.97949219 21.18310547 C-154.80381669 17.84076646 -148.68460296 14.4131932 -142.59619141 10.91455078 C-134.65888856 6.35590328 -126.70169596 1.83471216 -118.72119141 -2.64794922 C-117.69405029 -3.22722168 -116.66690918 -3.80649414 -115.60864258 -4.40332031 C-74.80144247 -27.28517801 -39.18440801 -22.86228327 0 0 Z " fill="#1584E8" transform="translate(317.90869140625,28.21044921875)"/>
<path d="M0 0 C5.20408682 3.01263279 10.46266021 5.92701372 15.71630859 8.85205078 C24.21890746 13.60279215 32.69014224 18.40460918 41.13867188 23.25073242 C47.93164165 27.14134506 54.75692209 30.97223489 61.59130859 34.78955078 C70.17562148 39.58489393 78.73570832 44.41892368 87.26342773 49.31420898 C91.83497663 51.93655658 96.41704173 54.53777731 101.01708984 57.10986328 C129.0007012 72.76209791 153.59432962 88.96745845 164.46630859 120.85205078 C164.70502686 121.54693604 164.94374512 122.24182129 165.18969727 122.95776367 C169.01118101 134.94188142 169.38796873 147.14448368 169.3659668 159.60107422 C169.37032466 161.25026681 169.37551135 162.89945738 169.38145447 164.54864502 C169.39474182 168.99104691 169.39543457 173.4333632 169.39289117 177.87578106 C169.3918142 181.60283015 169.39672335 185.32986244 169.40149659 189.05690789 C169.41255682 197.86070554 169.41304921 206.6644605 169.40698242 215.46826172 C169.40094854 224.50743201 169.41324683 233.54644641 169.43455249 242.58559012 C169.45224994 250.38478951 169.45815699 258.18393965 169.45491475 265.98315835 C169.4531143 270.62420922 169.4556126 275.26514892 169.46962929 279.90618134 C169.48233609 284.27629829 169.48014408 288.64617489 169.4672184 293.01628876 C169.46488054 294.6055917 169.46748492 296.19491225 169.47584152 297.78419495 C169.61094225 325.51200664 161.92280982 350.84226634 142.09521484 370.87158203 C141.09776707 371.84819044 140.09669394 372.82111578 139.09130859 373.78955078 C138.27533203 374.57716797 137.45935547 375.36478516 136.61865234 376.17626953 C128.63656009 383.22226856 119.23674181 388.07616063 109.96337891 393.19824219 C106.1549381 395.30835925 102.36791398 397.45534791 98.58056641 399.60302734 C95.69288914 401.24032952 92.80265707 402.87303116 89.91162109 404.50439453 C83.17448516 408.30659646 76.44007296 412.11361005 69.70581055 415.92089844 C64.97735176 418.59394066 60.24814776 421.26564238 55.51708984 423.93408203 C45.66050528 429.49572915 35.8194882 435.08335111 25.99822998 440.70715332 C21.27918498 443.4081378 16.55673419 446.10315617 11.83319092 448.79626465 C10.10660566 449.78082782 8.38044929 450.76614301 6.65429688 451.75146484 C-23.66612914 469.02598417 -52.47138584 482.23777323 -87.90869141 472.78955078 C-106.37667299 466.930076 -123.25571128 456.13136429 -139.9375 446.50244141 C-145.50378054 443.29348296 -151.08106652 440.10373493 -156.65869141 436.91455078 C-157.2509552 436.57577911 -157.84321899 436.23700745 -158.45343018 435.88796997 C-168.90426404 429.91203477 -179.39890361 424.01668893 -189.90869141 418.14501953 C-198.55421666 413.31394236 -207.1763297 408.44210175 -215.78955078 403.55371094 C-218.60031528 401.96396577 -221.4158985 400.38327495 -224.23332214 398.8053894 C-254.5253964 381.82685456 -279.40177252 364.2623495 -290.08447266 329.41064453 C-292.62421316 318.25263767 -293.20345696 307.36198514 -293.18334961 295.97802734 C-293.18770748 294.32883475 -293.19289416 292.67964418 -293.19883728 291.03045654 C-293.21212463 286.58805465 -293.21281738 282.14573837 -293.21027398 277.7033205 C-293.20919702 273.97627141 -293.21410616 270.24923913 -293.2188794 266.52219367 C-293.22993963 257.71839603 -293.23043203 248.91464106 -293.22436523 240.11083984 C-293.21833135 231.07166955 -293.23062965 222.03265515 -293.2519353 212.99351144 C-293.26963275 205.19431205 -293.27553981 197.39516191 -293.27229756 189.59594321 C-293.27049711 184.95489235 -293.27299541 180.31395264 -293.2870121 175.67292023 C-293.2997189 171.30280328 -293.29752689 166.93292667 -293.28460121 162.56281281 C-293.28226335 160.97350986 -293.28486774 159.38418931 -293.29322433 157.79490662 C-293.42821534 130.0896137 -285.71869604 105.25242607 -266.29150391 84.98486328 C-257.96691035 76.87975301 -248.92605254 70.70643954 -238.78369141 65.10205078 C-237.55234899 64.41113224 -236.32156528 63.71921715 -235.09130859 63.02636719 C-231.96853892 61.27091192 -228.83916856 59.52765268 -225.70715332 57.78875732 C-221.88059424 55.6627613 -218.06119746 53.52391779 -214.24047852 51.38745117 C-212.18474261 50.2381738 -210.12826301 49.09022566 -208.07104492 47.94360352 C-200.90167847 43.93821492 -193.80088726 39.82605145 -186.72119141 35.66455078 C-178.22507544 30.67245137 -169.64867446 25.86739737 -160.97949219 21.18310547 C-154.80381669 17.84076646 -148.68460296 14.4131932 -142.59619141 10.91455078 C-134.65888856 6.35590328 -126.70169596 1.83471216 -118.72119141 -2.64794922 C-117.69405029 -3.22722168 -116.66690918 -3.80649414 -115.60864258 -4.40332031 C-74.80144247 -27.28517801 -39.18440801 -22.86228327 0 0 Z M-94.78369141 33.22705078 C-95.86030029 33.84467285 -96.93690918 34.46229492 -98.04614258 35.09863281 C-100.26629061 36.37244295 -102.48367605 37.65108041 -104.69824219 38.93457031 C-108.59630788 41.18685192 -112.51733342 43.39637593 -116.44189453 45.60205078 C-126.51457608 51.26483732 -136.54126069 57.00813523 -146.56933594 62.74935913 C-154.92977969 67.53416919 -163.31243647 72.27751813 -171.72119141 76.97705078 C-172.74365967 77.54858887 -173.76612793 78.12012695 -174.81958008 78.70898438 C-176.85089449 79.84426864 -178.88222566 80.97952292 -180.91357422 82.11474609 C-189.59875791 86.97131278 -198.2667761 91.85637746 -206.90869141 96.78955078 C-207.89659668 97.3509375 -208.88450195 97.91232422 -209.90234375 98.49072266 C-212.86982737 100.1825868 -215.82782097 101.88999341 -218.78369141 103.60205078 C-219.66887451 104.10486572 -220.55405762 104.60768066 -221.46606445 105.12573242 C-235.265957 113.18981841 -243.96643409 123.82151604 -248.9647522 138.99557495 C-250.61324181 145.78510342 -250.20433623 152.86199817 -250.19921875 159.80566406 C-250.20521 161.42943122 -250.21201692 163.05319555 -250.21957397 164.67695618 C-250.23718419 169.07192575 -250.24192735 173.46681734 -250.24320555 177.86181879 C-250.24463096 180.61382886 -250.24890802 183.36581936 -250.25419998 186.11782455 C-250.27268647 195.73660277 -250.28087266 205.3553257 -250.27929688 214.97412109 C-250.27809708 223.9104723 -250.29917121 232.84658137 -250.3307842 241.78287137 C-250.35702785 249.47831602 -250.36766074 257.17368202 -250.36638606 264.86917102 C-250.36587863 269.45491172 -250.37143889 274.04043723 -250.39274216 278.62613297 C-250.41226047 282.94533896 -250.41215727 287.26412758 -250.39770889 291.58334923 C-250.39563616 293.15778788 -250.40022871 294.7322536 -250.41242981 296.30664635 C-250.53913738 313.80720195 -246.48847542 328.5258777 -234.26025391 341.56860352 C-227.14784148 348.28596397 -217.66993787 352.71132415 -209.15869141 357.41455078 C-206.94752354 358.64460552 -204.73659118 359.87508367 -202.52587891 361.10595703 C-201.41954102 361.72100098 -200.31320313 362.33604492 -199.17333984 362.96972656 C-194.19830278 365.7429786 -189.24012607 368.54572422 -184.28369141 371.35205078 C-183.34001709 371.88612549 -182.39634277 372.4202002 -181.42407227 372.97045898 C-179.52581653 374.04481167 -177.62762282 375.11927396 -175.72949219 376.19384766 C-172.93492814 377.77470888 -170.13886982 379.35289221 -167.34228516 380.93017578 C-156.29322503 387.16381887 -145.26830122 393.43832996 -134.25967407 399.74304199 C-124.68292795 405.22583761 -115.07198639 410.64482186 -105.42871094 416.01000977 C-99.40495534 419.36698252 -93.43407513 422.80176172 -87.49560547 426.30761719 C-75.77773234 433.02029083 -63.26718157 434.5840889 -50.03369141 431.78955078 C-35.65834383 427.67960292 -22.53941683 418.82195512 -9.70019531 411.39697266 C-4.99402576 408.6870356 -0.2636712 406.02014157 4.46630859 403.35205078 C5.42585449 402.81016113 6.38540039 402.26827148 7.37402344 401.70996094 C11.21358593 399.54172985 15.05382703 397.37470411 18.89453125 395.20849609 C30.86582586 388.45610536 42.81573731 381.66780946 54.74133301 374.83505249 C62.23502165 370.54268023 69.74970288 366.29202981 77.29492188 362.09057617 C106.89841597 346.24918971 106.89841597 346.24918971 124.36474609 318.49267578 C125.85255152 312.95739968 126.2180277 307.48269468 126.23847961 301.77120972 C126.24399465 300.76531758 126.24399465 300.76531758 126.24962109 299.73910439 C126.26055974 297.5109574 126.2644849 295.28285719 126.26831055 293.0546875 C126.27458263 291.44915116 126.28123008 289.84361625 126.28822327 288.23808289 C126.30917763 282.98181146 126.31961765 277.72554004 126.32958984 272.46923828 C126.33364064 270.65335195 126.33775765 268.83746577 126.34193993 267.02157974 C126.36097274 258.48768103 126.3752077 249.95379086 126.3835519 241.41987503 C126.39331708 231.59728544 126.41962588 221.77492162 126.46005279 211.95241153 C126.49029491 204.34108799 126.50502842 196.72982889 126.50833291 189.11844647 C126.51067412 184.58133275 126.51951295 180.04446075 126.54479408 175.50741196 C126.56822216 171.23420282 126.57224946 166.96139207 126.5620327 162.68813515 C126.56154079 161.1293956 126.56775811 159.57063543 126.58158875 158.01195717 C126.72555936 140.80923391 122.30857433 126.63765812 110.43505859 113.92236328 C105.83268176 109.73420036 100.49161287 106.8191115 95.09130859 103.78955078 C93.43474347 102.84739631 91.77851725 101.9046458 90.12255859 100.96142578 C86.25981341 98.76750803 82.39025398 96.58611037 78.51708984 94.41064453 C72.32399693 90.92816557 66.15622865 87.40212216 59.99172974 83.86938477 C49.53650905 77.87843926 39.04829806 71.95033476 28.52539062 66.07885742 C20.68563332 61.6981809 12.88347379 57.2540352 5.09130859 52.78955078 C-4.05816061 47.55056826 -13.21851217 42.33194298 -22.40869141 37.16455078 C-23.39224609 36.60896484 -24.37580078 36.05337891 -25.38916016 35.48095703 C-50.31322384 21.5057999 -69.19084586 18.19926021 -94.78369141 33.22705078 Z " fill="#2FE4E5" transform="translate(317.90869140625,28.21044921875)"/>
<path d="M0 0 C5.48123983 3.30249069 7.53802546 8.26745351 10.24926758 13.81738281 C10.74742981 14.81283112 11.24559204 15.80827942 11.7588501 16.83389282 C13.39885519 20.11807537 15.02170559 23.41042429 16.64453125 26.703125 C17.77976971 28.98479498 18.91607069 31.2659366 20.0533905 33.54656982 C22.73602184 38.93238273 25.40789703 44.32339791 28.07460755 49.71710086 C31.11230856 55.85966139 34.16370816 61.99537978 37.21625674 68.13057184 C43.49273713 80.74617949 49.75203356 93.37024919 56 106 C56.00364563 104.75829544 56.00729126 103.51659088 56.01104736 102.23725891 C56.04797743 90.53932379 56.10572853 78.84165239 56.18390274 67.14391804 C56.22342352 61.12986975 56.25558955 55.11596889 56.27099609 49.10180664 C56.28613217 43.29853826 56.32052396 37.49567509 56.36830902 31.6925869 C56.38315422 29.47784127 56.39104281 27.26303779 56.39188385 25.04824257 C56.39424575 21.94749294 56.42126377 18.84787021 56.45410156 15.74731445 C56.44655602 14.37166824 56.44655602 14.37166824 56.43885803 12.9682312 C56.50642657 8.84845799 56.67049362 6.55371484 58.81536865 2.9493866 C61.81997811 0.2683185 64.02350513 0.07100884 68 0 C71.39808026 1.10208008 71.94731917 1.92097876 74 5 C74.25726891 7.6068716 74.25726891 7.6068716 74.26742554 10.80064392 C74.27595551 12.01062546 74.28448547 13.22060699 74.29327393 14.46725464 C74.29257489 15.81011976 74.29165182 17.15298478 74.29052734 18.49584961 C74.29651094 19.90850684 74.30331609 21.32116079 74.31088257 22.73381042 C74.32856598 26.57263935 74.33323889 30.41137914 74.33451414 34.25024486 C74.33641229 37.45361607 74.34376876 40.65696648 74.35085833 43.86032969 C74.36714839 51.41690693 74.37202668 58.97343651 74.37060547 66.5300293 C74.3694035 74.32871096 74.3905148 82.12711611 74.4220928 89.92572778 C74.44822988 96.61880228 74.45897387 103.31178632 74.45769465 110.00491148 C74.4571843 114.00356071 74.46290736 118.00196421 74.48405075 122.00056267 C74.50339046 125.76074378 74.50358738 129.52044364 74.48901749 133.28064156 C74.48692301 134.66093268 74.49166831 136.04125359 74.5037384 137.42149353 C74.51914372 139.30505937 74.50750511 141.18878866 74.49447632 143.07237244 C74.49556585 144.12669433 74.49665539 145.18101622 74.49777794 146.26728725 C73.86897136 149.71932405 72.74409092 150.87399476 70 153 C66.5625 154 66.5625 154 63 154 C57.49912898 150.81510256 55.4365143 145.68042922 52.75073242 140.18261719 C52.25257019 139.18716888 51.75440796 138.19172058 51.2411499 137.16610718 C49.60114481 133.88192463 47.97829441 130.58957571 46.35546875 127.296875 C45.22023029 125.01520502 44.08392931 122.7340634 42.9466095 120.45343018 C40.26397816 115.06761727 37.59210297 109.67660209 34.92539245 104.28289914 C31.88769144 98.14033861 28.83629184 92.00462022 25.78374326 85.86942816 C19.50726287 73.25382051 13.24796644 60.62975081 7 48 C6.99413376 49.22917648 6.98826752 50.45835297 6.98222351 51.72477722 C6.92502664 63.30495506 6.85228075 74.88494456 6.76428509 86.46493053 C6.71954531 92.41841976 6.68029698 98.37183998 6.65356445 104.32543945 C6.62756771 110.07030097 6.58719066 115.81489745 6.53681374 121.55959511 C6.52012052 123.75201434 6.50862157 125.94447944 6.50238609 128.13695335 C6.49277189 131.20641279 6.46474401 134.27519039 6.43237305 137.34448242 C6.43380814 138.25222916 6.43524323 139.15997589 6.4367218 140.0952301 C6.36553105 144.86398098 6.15184247 148.16282201 3 152 C-0 154 -0 154 -3.4375 153.9375 C-7.75041921 152.80252126 -8.62643918 151.69403072 -11 148 C-11.50615788 145.16544342 -11.50615788 145.16544342 -11.5146637 142.00354004 C-11.52738815 140.80066849 -11.54011261 139.59779694 -11.55322266 138.35847473 C-11.54669678 137.04715073 -11.5401709 135.73582672 -11.53344727 134.38476562 C-11.54050816 132.98328239 -11.5492539 131.58180679 -11.55955505 130.18034363 C-11.58203877 126.3807132 -11.57911212 122.58149951 -11.57023358 118.78182793 C-11.56512059 115.60825544 -11.57241866 112.43476105 -11.57970566 109.26119661 C-11.59670099 101.77448469 -11.5931421 94.28797662 -11.57641602 86.80126953 C-11.55948831 79.07972568 -11.57533856 71.35874688 -11.6076389 63.63726473 C-11.63433328 57.00440175 -11.64161146 50.37171469 -11.63312382 43.73880339 C-11.62819489 39.77868831 -11.63040816 35.81891333 -11.65091133 31.85884094 C-11.66926688 28.13543431 -11.6633126 24.41284085 -11.63871193 20.68947792 C-11.63131718 18.67348593 -11.64855976 16.65745069 -11.66653442 14.64152527 C-11.56291887 4.79194523 -11.56291887 4.79194523 -8.64805603 1.6842041 C-5.3714766 -0.39975049 -3.81411048 -0.71514572 0 0 Z " fill="#FDFEFE" transform="translate(122,179)"/>
<path d="M0 0 C0.70324905 -0.0087616 1.40649811 -0.01752319 2.13105774 -0.02655029 C4.44022552 -0.04843724 6.74745569 -0.03403236 9.05664062 -0.01708984 C10.67037318 -0.02046112 12.28410325 -0.02531634 13.89782715 -0.03158569 C17.27376571 -0.03894243 20.64904111 -0.02829109 24.02490234 -0.00488281 C28.3427789 0.02360526 32.65910148 0.0071947 36.97692108 -0.02274513 C40.30738949 -0.04085119 43.63749211 -0.03504516 46.9679718 -0.02210617 C48.55951626 -0.01878125 50.1510944 -0.02282705 51.74259949 -0.03450394 C53.97121566 -0.04726863 56.19734911 -0.02776346 58.42578125 0 C59.69119751 0.00397797 60.95661377 0.00795593 62.26037598 0.01205444 C66.85559931 0.85711704 68.4835947 2.30436877 71.71289062 5.64697266 C72.40039062 9.14697266 72.40039062 9.14697266 71.71289062 12.64697266 C69.20224239 15.78612643 67.71344532 17.44596802 63.71989441 18.24824524 C62.61180923 18.23714218 61.50372406 18.22603912 60.36206055 18.21459961 C59.10113083 18.21422195 57.84020111 18.2138443 56.5410614 18.2134552 C55.17515057 18.1879259 53.80924993 18.16184599 52.44335938 18.13525391 C51.03804281 18.12592125 49.63270991 18.11880727 48.22737122 18.11381531 C44.53950603 18.09478038 40.85263512 18.04571236 37.16516113 17.99029541 C33.39800712 17.93902573 29.63068667 17.91601046 25.86328125 17.89111328 C18.47894137 17.84024293 11.09732695 17.74237881 3.71289062 17.64697266 C3.71289062 34.47697266 3.71289062 51.30697266 3.71289062 68.64697266 C15.33553905 68.52846523 15.33553905 68.52846523 26.95776367 68.37670898 C28.42170555 68.36794192 29.88565478 68.3602985 31.34960938 68.35400391 C32.10133423 68.33865601 32.85305908 68.32330811 33.62756348 68.30749512 C38.17497586 68.30523759 41.10725391 68.80691339 44.71289062 71.64697266 C46.30905805 74.83930751 46.22755177 78.18158762 45.71289062 81.64697266 C43.84273968 84.07816888 42.43150717 85.28766438 39.71289062 86.64697266 C37.01395881 86.73372803 34.34119832 86.76255163 31.64257812 86.74462891 C30.8463504 86.74321396 30.05012268 86.74179901 29.22976685 86.74034119 C26.68243682 86.7347361 24.13519416 86.72218279 21.58789062 86.70947266 C19.86263148 86.70445831 18.13737095 86.69989529 16.41210938 86.69580078 C12.17900271 86.68476503 7.94596149 86.66749702 3.71289062 86.64697266 C3.71955246 87.40008224 3.72621429 88.15319183 3.733078 88.92912292 C3.79325358 96.03543334 3.83889769 103.14165512 3.86832714 110.24814892 C3.88396595 113.90146464 3.90517111 117.55456937 3.93920898 121.20776367 C3.97186687 124.73502481 3.98975707 128.26208333 3.99752235 131.78948402 C4.00574196 133.78641574 4.02915123 135.78326624 4.05278015 137.78007507 C4.05300674 139.00096329 4.05323334 140.2218515 4.0534668 141.47973633 C4.06012863 142.55229172 4.06679047 143.62484711 4.07365417 144.72990417 C3.65674518 148.10095451 2.73059338 149.93499109 0.71289062 152.64697266 C-2.28710938 154.64697266 -2.28710938 154.64697266 -5.72460938 154.58447266 C-10.03760024 153.44947506 -10.91314059 152.34077978 -13.28710938 148.64697266 C-13.79606056 145.81241608 -13.79606056 145.81241608 -13.8085022 142.6505127 C-13.82267181 141.44764114 -13.83684143 140.24476959 -13.85144043 139.00544739 C-13.8464856 137.69412338 -13.84153076 136.38279938 -13.83642578 135.03173828 C-13.84512465 133.63025324 -13.8554925 132.22877772 -13.86740112 130.82731628 C-13.89415207 127.02770358 -13.89534218 123.22848908 -13.89027452 119.42880058 C-13.88813352 116.2552243 -13.89790559 113.08172833 -13.90748537 109.90816927 C-13.92966467 102.42146566 -13.9305562 94.93496275 -13.91845703 87.44824219 C-13.90637017 79.72662311 -13.93101907 72.00573222 -13.97359717 64.28423738 C-14.00882633 57.65136969 -14.02083266 51.01873385 -14.01432168 44.38577604 C-14.01069575 40.42558705 -14.01596931 36.4659178 -14.04375076 32.5058136 C-14.06889608 28.78230809 -14.06503411 25.05993856 -14.03892899 21.33645058 C-14.03194014 19.32043627 -14.05456263 17.30438736 -14.07806396 15.28849792 C-13.97937731 6.82670169 -13.97937731 6.82670169 -12.15784073 3.72252846 C-8.56673217 0.31751686 -4.74138848 0.01490504 0 0 Z " fill="#FBFDFE" transform="translate(235.287109375,178.35302734375)"/>
<path d="M0 0 C1.0692849 -0.0131424 1.0692849 -0.0131424 2.16017151 -0.02655029 C4.50722863 -0.04848482 6.85238797 -0.03401353 9.19946289 -0.01708984 C10.83704488 -0.02046012 12.47462443 -0.02531451 14.11219788 -0.03158569 C17.54118713 -0.0389492 20.9695242 -0.0282705 24.3984375 -0.00488281 C28.78471618 0.02358301 33.16946367 0.00721297 37.555686 -0.02274513 C40.93676698 -0.04085203 44.31748768 -0.03504436 47.69857979 -0.02210617 C49.31524399 -0.01878031 50.93194134 -0.02283035 52.54856682 -0.03450394 C54.81320081 -0.04726732 57.0753909 -0.02776375 59.33984375 0 C61.26913979 0.00596695 61.26913979 0.00596695 63.2374115 0.01205444 C67.83739704 0.84718204 69.47854816 2.34405187 72.73461914 5.64697266 C73.24243164 7.99853516 73.24243164 7.99853516 72.85961914 10.27197266 C72.75907227 11.02736328 72.65852539 11.78275391 72.55493164 12.56103516 C71.45321374 15.36254639 70.33131506 16.12603547 67.73461914 17.64697266 C64.6184082 17.98754883 64.6184082 17.98754883 61.00024414 17.93994141 C59.70473633 17.93027344 58.40922852 17.92060547 57.07446289 17.91064453 C55.7111756 17.88558049 54.34789435 17.86018568 52.98461914 17.83447266 C51.6057273 17.81941784 50.22681979 17.80573082 48.84790039 17.79345703 C45.47641 17.75809175 42.1057126 17.7087317 38.73461914 17.64697266 C38.73738452 18.31234889 38.7401499 18.97772512 38.74299908 19.66326427 C38.80925734 35.85468834 38.85889892 52.04606945 38.89005566 68.23759747 C38.90552337 76.06770891 38.92661102 83.89772985 38.9609375 91.7277832 C38.99084284 98.55260475 39.01019484 105.37736076 39.01688462 112.20224601 C39.02079499 115.81586402 39.02998271 119.4292945 39.05180931 123.0428524 C39.07598004 127.07723681 39.07658841 131.11129537 39.07519531 135.14575195 C39.08598114 136.34337158 39.09676697 137.54099121 39.10787964 138.77490234 C39.10169365 140.42597237 39.10169365 140.42597237 39.09538269 142.11039734 C39.09814807 143.06445308 39.10091345 144.01850882 39.10376263 145.00147533 C38.65729541 148.20111956 37.63217325 150.04962638 35.73461914 152.64697266 C32.73461914 154.64697266 32.73461914 154.64697266 29.29711914 154.58447266 C25.73461914 153.64697266 25.73461914 153.64697266 23.54034424 151.8754425 C20.69326611 146.78512954 21.21218847 141.78864744 21.28051758 136.05395508 C21.27993347 134.7755072 21.27934937 133.49705933 21.27874756 132.17987061 C21.27760152 128.68211828 21.30109211 125.18491644 21.32904339 121.68729186 C21.35407588 118.02913068 21.35640048 114.37095639 21.36114502 110.71272278 C21.37356942 103.78894619 21.40638358 96.86542271 21.44654298 89.9417575 C21.49127751 82.05790957 21.51325193 74.17404946 21.53332472 66.29010618 C21.57511686 50.07558024 21.64545826 33.86130877 21.73461914 17.64697266 C20.88230713 17.67315674 20.02999512 17.69934082 19.15185547 17.72631836 C15.97434787 17.81178758 12.79742804 17.87434055 9.61914062 17.92163086 C8.24654812 17.94669883 6.87408812 17.98076348 5.50195312 18.02416992 C3.52411218 18.08514797 1.54527731 18.11058275 -0.43334961 18.13525391 C-2.2164856 18.17453003 -2.2164856 18.17453003 -4.03564453 18.21459961 C-8.2239246 17.47850836 -9.67173382 15.94816877 -12.26538086 12.64697266 C-12.89038086 9.14697266 -12.89038086 9.14697266 -12.26538086 5.64697266 C-8.51894013 0.83437793 -6.00981733 0.01859874 0 0 Z " fill="#FCFDFE" transform="translate(328.265380859375,178.35302734375)"/>
</svg>
